<svg xmlns:mydata="http://www.w3.org/2000/svg" mydata:contrastcolor="ffffff" mydata:template="InvertedHex1" mydata:presentation="2.5" mydata:layouttype="undefined" mydata:specialfontid="undefined" mydata:id1="748" mydata:id2="998" mydata:companyname="Eye Net" mydata:companytagline="" version="1.1" xmlns="http://www.w3.org/2000/svg" xmlns:xlink="http://www.w3.org/1999/xlink" viewBox="0 0 550 470"><g fill="#ffffff" fill-rule="nonzero" stroke="none" stroke-width="1" stroke-linecap="butt" stroke-linejoin="miter" stroke-miterlimit="10" stroke-dasharray="" stroke-dashoffset="0" font-family="none" font-weight="none" font-size="none" text-anchor="none" style="mix-blend-mode: normal"><g data-paper-data="{&quot;isGlobalGroup&quot;:true,&quot;bounds&quot;:{&quot;x&quot;:75.19839574579001,&quot;y&quot;:114.99999999999997,&quot;width&quot;:399.60320850842004,&quot;height&quot;:240.00000000000003}}"><g data-paper-data="{&quot;isPrimaryText&quot;:true}"><path d="M99.2997,344.79111l-0.24865,-0.43766l-0.24613,0.43766c-1.11556,1.96063 -2.78974,3.57349 -4.82597,4.64705l-0.45278,0.23941l0.45278,0.23773c2.03707,1.07272 3.71041,2.68642 4.82597,4.64705l0.24613,0.43766l0.24865,-0.43766c1.11304,-1.96063 2.78806,-3.57433 4.82513,-4.64705l0.45362,-0.23773l-0.45362,-0.23941c-2.03707,-1.07356 -3.71293,-2.68558 -4.82513,-4.64705zM120.17949,306.5983c-1.81699,-3.20388 -4.52692,-5.75757 -8.13737,-7.6636c-3.61213,-1.90687 -7.93745,-2.85862 -12.98771,-2.85862c-5.04942,0 -9.38062,0.95343 -12.99275,2.85862c-3.60625,1.90603 -6.32039,4.45972 -8.13737,7.6636c-1.81699,3.20471 -2.7259,6.77148 -2.7259,10.70198c0,3.89186 0.90891,7.44015 2.7259,10.6415c1.81699,3.20388 4.52944,5.74917 8.13737,7.63755c3.61213,1.88503 7.94333,2.8267 12.99275,2.8267c4.9587,0 9.24537,-0.95259 12.85666,-2.85946c3.54493,-1.87159 6.24394,-4.37656 8.10125,-7.50483h-8.15501c-1.13152,2.14292 -2.61921,3.91538 -4.50592,5.27707c-2.2916,1.6515 -5.05866,2.47809 -8.29614,2.47809c-3.23832,0 -6.00622,-0.82743 -8.30118,-2.47809c-2.2916,-1.65402 -4.02794,-3.88262 -5.19979,-6.69084c-1.03828,-2.47977 -1.59102,-5.20567 -1.71282,-8.15585h39.02696c0.01932,-0.38893 0.03612,-0.77787 0.03612,-1.17184c0.00084,-3.92966 -0.90639,-7.49643 -2.72506,-10.70199zM83.84735,316.01252c0.12936,-2.94095 0.68042,-5.65172 1.70862,-8.10377c1.17016,-2.80906 2.9065,-5.0469 5.19979,-6.7194c2.29664,-1.66914 5.0637,-2.50413 8.30118,-2.50413c3.23748,0 6.00454,0.83499 8.29614,2.50413c2.29076,1.6725 4.02711,3.91034 5.20483,6.7194c1.02652,2.45205 1.57758,5.16283 1.70862,8.10377z" data-paper-data="{&quot;glyphName&quot;:&quot;&quot;,&quot;glyphIndex&quot;:0,&quot;firstGlyphOfWord&quot;:true,&quot;word&quot;:1}"></path><path d="M178.47255,296.07608l-19.68611,28.46694l-19.68695,-28.46694h-11.98723l22.52541,32.2328v26.06698h9.57046v-26.05522l22.53633,-32.24456z" data-paper-data="{&quot;glyphName&quot;:&quot;Y&quot;,&quot;glyphIndex&quot;:1,&quot;word&quot;:1}"></path><path d="M209.25966,344.79111l-0.24865,-0.43766l-0.24613,0.43766c-1.11556,1.96063 -2.78974,3.57349 -4.82597,4.64705l-0.45278,0.23941l0.45278,0.23773c2.03707,1.07272 3.71041,2.68642 4.82597,4.64705l0.24613,0.43766l0.24865,-0.43766c1.11304,-1.96063 2.78806,-3.57433 4.82513,-4.64705l0.45362,-0.23773l-0.45362,-0.23941c-2.03707,-1.07356 -3.71293,-2.68558 -4.82513,-4.64705zM230.13945,306.5983c-1.81699,-3.20388 -4.52692,-5.75757 -8.13737,-7.6636c-3.61213,-1.90687 -7.93745,-2.85862 -12.98771,-2.85862c-5.04942,0 -9.38062,0.95343 -12.99275,2.85862c-3.60625,1.90603 -6.32039,4.45972 -8.13737,7.6636c-1.81699,3.20471 -2.7259,6.77148 -2.7259,10.70198c0,3.89186 0.90891,7.44015 2.7259,10.6415c1.81699,3.20388 4.52944,5.74917 8.13737,7.63755c3.61213,1.88503 7.94333,2.8267 12.99275,2.8267c4.9587,0 9.24537,-0.95259 12.85666,-2.85946c3.54493,-1.87159 6.24394,-4.37656 8.10125,-7.50483h-8.15501c-1.13152,2.14292 -2.61921,3.91538 -4.50592,5.27707c-2.2916,1.6515 -5.05866,2.47809 -8.29614,2.47809c-3.23832,0 -6.00622,-0.82743 -8.30118,-2.47809c-2.2916,-1.65402 -4.02794,-3.88262 -5.19979,-6.69084c-1.03828,-2.47977 -1.59102,-5.20567 -1.71282,-8.15585h39.02696c0.01932,-0.38893 0.03612,-0.77787 0.03612,-1.17184c0.00084,-3.92966 -0.90639,-7.49643 -2.72506,-10.70199zM193.8073,316.01252c0.12936,-2.94095 0.68042,-5.65172 1.70862,-8.10377c1.17016,-2.80906 2.9065,-5.0469 5.19979,-6.7194c2.29664,-1.66914 5.0637,-2.50413 8.30118,-2.50413c3.23748,0 6.00454,0.83499 8.29614,2.50413c2.29076,1.6725 4.02711,3.91034 5.20483,6.7194c1.02652,2.45205 1.57758,5.16283 1.70862,8.10377z" data-paper-data="{&quot;glyphName&quot;:&quot;&quot;,&quot;glyphIndex&quot;:2,&quot;lastGlyphOfWord&quot;:true,&quot;word&quot;:1}"></path><path d="M358.04245,296.07608v42.84574l-24.96402,-20.20777l-26.32487,-22.63797h-4.15899v57.99233h2.60073v-44.88197l53.42004,45.18859h2.02447v-58.29894z" data-paper-data="{&quot;glyphName&quot;:&quot;N&quot;,&quot;glyphIndex&quot;:3,&quot;firstGlyphOfWord&quot;:true,&quot;word&quot;:2}"></path><path d="M395.66236,344.79111l-0.24865,-0.43766l-0.24613,0.43766c-1.11556,1.96063 -2.78974,3.57349 -4.82597,4.64705l-0.45278,0.23941l0.45278,0.23773c2.03707,1.07272 3.71041,2.68642 4.82597,4.64705l0.24613,0.43766l0.24865,-0.43766c1.11304,-1.96063 2.78806,-3.57433 4.82513,-4.64705l0.45362,-0.23773l-0.45362,-0.23941c-2.03707,-1.07356 -3.71293,-2.68558 -4.82513,-4.64705zM416.54215,306.5983c-1.81699,-3.20388 -4.52692,-5.75757 -8.13737,-7.6636c-3.61213,-1.90687 -7.93745,-2.85862 -12.98771,-2.85862c-5.04942,0 -9.38062,0.95343 -12.99275,2.85862c-3.60625,1.90603 -6.32039,4.45972 -8.13737,7.6636c-1.81699,3.20471 -2.7259,6.77148 -2.7259,10.70198c0,3.89186 0.90891,7.44015 2.7259,10.6415c1.81699,3.20388 4.52944,5.74917 8.13737,7.63755c3.61213,1.88503 7.94333,2.8267 12.99275,2.8267c4.9587,0 9.24537,-0.95259 12.85666,-2.85946c3.54493,-1.87159 6.24394,-4.37656 8.10125,-7.50483h-8.15501c-1.13152,2.14292 -2.61921,3.91538 -4.50592,5.27707c-2.2916,1.6515 -5.05866,2.47809 -8.29614,2.47809c-3.23832,0 -6.00622,-0.82743 -8.30118,-2.47809c-2.2916,-1.65402 -4.02794,-3.88262 -5.19979,-6.69084c-1.03828,-2.47977 -1.59102,-5.20567 -1.71282,-8.15585h39.02696c0.01932,-0.38893 0.03612,-0.77787 0.03612,-1.17184c0.00084,-3.92966 -0.90639,-7.49643 -2.72506,-10.70199zM380.21,316.01252c0.12936,-2.94095 0.68042,-5.65172 1.70862,-8.10377c1.17016,-2.80906 2.9065,-5.0469 5.19979,-6.7194c2.29664,-1.66914 5.0637,-2.50413 8.30118,-2.50413c3.23748,0 6.00454,0.83499 8.29614,2.50413c2.29076,1.6725 4.02711,3.91034 5.20483,6.7194c1.02652,2.45205 1.57758,5.16283 1.70862,8.10377z" data-paper-data="{&quot;glyphName&quot;:&quot;&quot;,&quot;glyphIndex&quot;:4,&quot;word&quot;:2}"></path><path d="M420.1148,296.07608v2.60997h23.96186v55.6898h9.57046v-55.6898h21.15448v-2.60997z" data-paper-data="{&quot;glyphName&quot;:&quot;T&quot;,&quot;glyphIndex&quot;:5,&quot;lastGlyphOfWord&quot;:true,&quot;word&quot;:2}"></path></g><g data-paper-data="{&quot;selectedEffects&quot;:{&quot;container&quot;:&quot;circle_simple_filled&quot;,&quot;transformation&quot;:&quot;&quot;,&quot;pattern&quot;:&quot;&quot;},&quot;initialText&quot;:&quot;EN&quot;,&quot;fillRule&quot;:&quot;nonzero&quot;,&quot;blockLetter&quot;:&quot;O&quot;,&quot;blockLetterId&quot;:0,&quot;relativeBoundsIconToContainer&quot;:{&quot;top&quot;:0.0003986209450732562,&quot;left&quot;:2.9512569622051757e-16},&quot;widthRatioIconToContainer&quot;:0.901395102589288,&quot;heightRatioIconToContainer&quot;:0.8766509407111936,&quot;bounds&quot;:{&quot;x&quot;:200.11413446256302,&quot;y&quot;:114.99999999999997,&quot;width&quot;:149.77173107487397,&quot;height&quot;:149.771731074874},&quot;isIcon&quot;:&quot;true&quot;,&quot;iconType&quot;:&quot;initial&quot;,&quot;iconStyle&quot;:&quot;standalone&quot;,&quot;rawInitialId&quot;:1087,&quot;monogramSpecial&quot;:&quot;emblem&quot;,&quot;suitableAsStandaloneIcon&quot;:true}"><path d="M200.11413,189.88587c0,-41.35832 33.52755,-74.88587 74.88587,-74.88587c41.35832,0 74.88587,33.52755 74.88587,74.88587c0,41.35832 -33.52755,74.88587 -74.88587,74.88587c-41.35832,0 -74.88587,-33.52755 -74.88587,-74.88587zM271.02931,255.59433v-11.68387c-20.59283,-0.73024 -38.11864,-12.99831 -46.58945,-30.52412l46.58945,-26.87291v-13.5825l-50.53275,29.20968c-0.87629,-3.9433 -1.31443,-8.03266 -1.31443,-12.12202c0,-29.20968 22.9296,-52.86953 51.84718,-54.03792v-11.68387c-35.34372,1.16838 -63.53106,30.08597 -63.53106,65.72178c0,35.48977 28.18735,64.40735 63.53106,65.57574zM278.97069,255.59433c3.9433,-0.14605 7.88661,-0.58419 11.68387,-1.46048v-78.28195l15.48113,65.13759h11.97597c14.89694,-12.12202 24.39009,-30.52412 24.39009,-50.97089c0,-18.84024 -7.88661,-35.78186 -20.44678,-47.75783l-8.32476,8.32476c10.51549,9.78524 17.08767,23.80589 17.08767,39.43307c0,14.75089 -5.98799,28.18735 -15.77323,37.97259l-24.39009,-102.23389c-3.79726,-0.87629 -7.74056,-1.31443 -11.68387,-1.46048z" data-paper-data="{&quot;isPathIcon&quot;:true}"></path></g></g></g></svg>